<?xml version="1.0" encoding="UTF-8"?>
<svg width="604px" height="93px" viewBox="0 0 604 93" version="1.1" xmlns="http://www.w3.org/2000/svg" xmlns:xlink="http://www.w3.org/1999/xlink">
    <title>pancakeswap</title>
    <g id="页面-1" stroke="none" stroke-width="1" fill="none" fill-rule="evenodd">
        <g id="pancakeswap">
            <path d="M116.746809,72 C115.353736,72 114.369113,71.7117169 113.792565,71.1351507 C113.263939,70.558959 113,69.6461873 113,68.3972102 L113,26.6750103 C113,25.4259958 113.287899,24.5132616 113.864447,23.9367703 C114.440994,23.3122817 115.401656,23 116.746809,23 L134.400762,23 C141.125774,23 146.073598,24.4171547 149.244234,27.2514641 C152.414869,30.0857736 154,34.3132391 154,39.9339356 C154,45.5064102 152.414869,49.7097273 149.244234,52.5442613 C146.121893,55.3304986 141.174069,56.7236173 134.400762,56.7236173 L127.555198,56.7236173 L127.555198,68.3972102 C127.555198,69.6461873 127.266925,70.558959 126.690752,71.1351507 C126.114205,71.7117169 125.129207,72 123.736134,72 L116.746809,72 Z M133.247667,46.2750402 C135.217287,46.2750402 136.730537,45.7463965 137.787415,44.6898577 C138.892215,43.6329445 139.444427,42.0473875 139.444427,39.9339356 C139.444427,37.7721868 138.892215,36.1626687 137.787415,35.1058678 C136.730537,34.0490295 135.217287,33.5206104 133.247667,33.5206104 L127.555198,33.5206104 L127.555198,46.2750402 L133.247667,46.2750402 Z" id="形状" fill="#FFFFFF" fill-rule="nonzero"></path>
            <path d="M171.000094,73 C166.45914,73 162.811619,71.54916 160.057906,68.6471032 C157.352761,65.6967981 156,61.5613953 156,56.2412718 C156,52.1786184 156.917904,48.6237024 158.753713,45.5765238 C160.637714,42.5293452 163.270571,40.183651 166.652284,38.5394411 C170.08219,36.846606 174.019239,36 178.463809,36 C182.135427,36 185.372188,36.4112409 188.174093,37.2333459 C191.02419,38.0072026 193.632951,39.144052 196,40.6431402 L196,69.6625781 C196,70.5815565 195.830952,71.1861673 195.492856,71.4764107 C195.15476,71.7666541 194.478568,71.9117758 193.463903,71.9117758 L186.072476,71.9117758 C185.541236,71.9117758 185.130476,71.8390265 184.840572,71.6942817 C184.550667,71.5005348 184.309332,71.2102915 184.116188,70.8235516 L183.174187,68.6471032 C181.772858,70.1465683 180.082378,71.2347925 178.101617,71.9117758 C176.169048,72.6373842 173.801999,73 171.000094,73 Z M176.434856,63.1332328 C178.318857,63.1332328 179.792474,62.6737436 180.85533,61.7547652 C181.91781,60.8361638 182.449427,59.5300686 182.449427,57.8372335 L182.449427,46.5196263 C181.531522,46.0842612 180.371906,45.8667672 178.970953,45.8667672 C176.41076,45.8667672 174.357712,46.7616215 172.811807,48.550953 C171.314094,50.3406616 170.565238,52.8556016 170.565238,56.0961501 C170.565238,60.7875386 172.521903,63.1332328 176.434856,63.1332328 Z" id="形状" fill="#FFFFFF" fill-rule="nonzero"></path>
            <path d="M206.843594,72 C205.441573,72 204.450626,71.7090436 203.870376,71.1271307 C203.290125,70.5455958 203,69.6243597 203,68.3638005 L203,39.345621 C203,38.4727517 203.145063,37.8908389 203.435188,37.6002603 C203.773542,37.2605592 204.450249,37.0908976 205.465688,37.0908976 L212.935094,37.0908976 C213.515344,37.0908976 213.950532,37.1880091 214.240657,37.3818541 C214.579011,37.5273323 214.772302,37.8182887 214.820531,38.2547233 L215.183376,40.4365186 C216.537168,39.0788479 218.301657,38.0121337 220.477219,37.2363759 C222.70101,36.4122512 225.166698,36 227.874282,36 C231.790219,36 234.956729,37.115081 237.374188,39.345621 C239.791647,41.5274162 241,44.7759258 241,49.0911496 L241,68.3638005 C241,69.6243597 240.709875,70.5455958 240.130001,71.1271307 C239.597979,71.7090436 238.631146,72 237.229126,72 L230.194907,72 C228.792887,72 227.777448,71.7090436 227.148969,71.1271307 C226.568719,70.5455958 226.278594,69.6243597 226.278594,68.3638005 L226.278594,50.036569 C226.278594,48.5817869 225.964354,47.5396339 225.335875,46.9089764 C224.707396,46.2786968 223.716449,45.963557 222.362657,45.963557 C220.912407,45.963557 219.751906,46.3516248 218.881907,47.1273827 C218.05976,47.9031405 217.649063,48.9698547 217.649063,50.3271475 L217.649063,68.3638005 C217.649063,69.6243597 217.358938,70.5455958 216.778688,71.1271307 C216.247043,71.7090436 215.279833,72 213.877812,72 L206.843594,72 Z" id="路径" fill="#FFFFFF" fill-rule="nonzero"></path>
            <path d="M266.019489,73 C259.300852,73 254.117883,71.4281625 250.470954,68.2844874 C246.823651,65.1404354 245,60.5700445 245,54.5725608 C245,50.8966473 245.840017,47.6560988 247.519302,44.8509154 C249.198961,42.0457319 251.622517,39.8692835 254.789971,38.3215701 C258.005297,36.7738567 261.796217,36 266.163481,36 C269.474552,36 272.257902,36.3143675 274.51353,36.9431025 C276.81703,37.5718375 278.856483,38.5394411 280.632262,39.8451594 C281.159983,40.183651 281.424031,40.6190161 281.424031,41.1512546 C281.424031,41.5379945 281.232167,42.0457319 280.848063,42.6744669 L277.896785,47.8257215 C277.560928,48.5027048 277.152887,48.8411964 276.673038,48.8411964 C276.385054,48.8411964 275.929141,48.6478265 275.3053,48.2607097 C274.009744,47.4386047 272.785998,46.8339938 271.634061,46.4472539 C270.53037,46.0601371 269.138695,45.8667672 267.459036,45.8667672 C265.059416,45.8667672 263.116083,46.6406239 261.628289,48.1883373 C260.188741,49.7360507 259.468781,51.8642509 259.468781,54.5725608 C259.468781,57.329496 260.212678,59.4576962 261.700472,60.9567844 C263.187892,62.4080013 265.227719,63.1332328 267.81883,63.1332328 C269.354497,63.1332328 270.746171,62.9157388 271.994228,62.4803737 C273.241911,62.0450086 274.51353,61.4403977 275.809085,60.666541 C276.481173,60.2798011 276.961023,60.0864312 277.249007,60.0864312 C277.680983,60.0864312 278.064713,60.4249228 278.40057,61.1019061 L281.639833,66.6881488 C281.879944,67.1717621 282,67.558879 282,67.8491223 C282,68.2844874 281.712016,68.6953514 281.136047,69.0824682 C279.120531,70.3881865 276.91315,71.3554132 274.51353,71.9841482 C272.162157,72.6615084 269.33056,73 266.019489,73 Z" id="路径" fill="#FFFFFF" fill-rule="nonzero"></path>
            <path d="M300.999953,73 C296.459042,73 292.811555,71.54916 290.058244,68.6471032 C287.352748,65.6967981 286,61.5613953 286,56.2412718 C286,52.1786184 286.917896,48.6237024 288.753687,45.5765238 C290.63767,42.5293452 293.270503,40.183651 296.652184,38.5394411 C300.082057,36.846606 304.019446,36 308.463598,36 C312.135181,36 315.371912,36.4112409 318.17379,37.2333459 C321.024237,38.0072026 323.632597,39.144052 326,40.6431402 L326,69.6625781 C326,70.5815565 325.830954,71.1861673 325.492484,71.4764107 C325.154391,71.7666541 324.478206,71.9117758 323.463551,71.9117758 L316.072569,71.9117758 C315.540958,71.9117758 315.130202,71.8390265 314.840677,71.6942817 C314.550775,71.5005348 314.309065,71.2102915 314.115923,70.8235516 L313.173931,68.6471032 C311.772992,70.1465683 310.082151,71.2347925 308.101409,71.9117758 C306.169235,72.6373842 303.801832,73 300.999953,73 Z M306.434664,63.1332328 C308.318647,63.1332328 309.79225,62.6737436 310.855096,61.7547652 C311.917943,60.8361638 312.449178,59.5300686 312.449178,57.8372335 L312.449178,46.5196263 C311.531282,46.0842612 310.372053,45.8667672 308.971113,45.8667672 C306.410568,45.8667672 304.357539,46.7616215 302.811649,48.550953 C301.31395,50.3406616 300.565101,52.8556016 300.565101,56.0961501 C300.565101,60.7875386 302.521747,63.1332328 306.434664,63.1332328 Z" id="形状" fill="#FFFFFF" fill-rule="nonzero"></path>
            <path d="M371.490087,69.2616851 C371.830029,69.6461873 372,70.0782376 372,70.558959 C372,70.9910092 371.854256,71.3515503 371.563148,71.6398333 C371.27166,71.8798196 370.882885,72 370.397199,72 L359.10415,72 C358.423887,72 357.913973,71.9520776 357.574031,71.8558585 C357.282544,71.7117169 356.966829,71.447395 356.626887,71.0632672 L346.717835,57.7322337 L346.717835,68.3972102 C346.717835,69.6461873 346.426347,70.558959 345.843373,71.1351507 C345.260777,71.7117169 344.264799,72 342.856196,72 L335.788956,72 C334.380353,72 333.384375,71.7117169 332.801779,71.1351507 C332.26726,70.558959 332,69.6461873 332,68.3972102 L332,26.6750103 C332,25.4259958 332.291487,24.5132616 332.874462,23.9367703 C333.457436,23.3122817 334.428808,23 335.788956,23 L342.856196,23 C344.264799,23 345.260777,23.3122817 345.843373,23.9367703 C346.426347,24.5132616 346.717835,25.4259958 346.717835,26.6750103 L346.717835,50.8145628 L356.3354,38.4206366 C356.626887,38.0361343 356.942602,37.7721868 357.282544,37.6280453 C357.622486,37.4839037 358.1324,37.4116458 358.812663,37.4116458 L370.105711,37.4116458 C370.591397,37.4116458 370.955946,37.5557873 371.198599,37.8440704 C371.490087,38.0844311 371.63583,38.4206366 371.63583,38.8530612 C371.63583,39.3334082 371.465859,39.7658328 371.125917,40.1499607 L358.666919,54.2735855 L371.490087,69.2616851 Z" id="路径" fill="#FFFFFF" fill-rule="nonzero"></path>
            <path d="M395.241882,73 C391.153476,73 387.505011,72.3230167 384.292693,70.9686733 C381.129678,69.6143298 378.62278,67.5830031 376.773896,64.8746931 C374.924632,62.1660062 374,58.8530853 374,54.9351766 C374,48.7929482 375.751794,44.1015597 379.256142,40.8610112 C382.760489,37.6204627 387.79704,36 394.365795,36 C400.790431,36 405.656316,37.5963386 408.963449,40.7882619 C412.323678,43.931937 414,48.3093349 414,53.9197017 C414,56.3377683 412.930491,57.5469901 410.787682,57.5469901 L387.869099,57.5469901 C387.869099,59.626942 388.646579,61.2229037 390.20533,62.335252 C391.809593,63.4476003 394.217884,64.003963 397.430202,64.003963 C399.425101,64.003963 401.08246,63.8347171 402.394694,63.4962255 C403.756232,63.1091087 405.121562,62.553123 406.483099,61.8275145 C407.067157,61.5855194 407.457793,61.4648988 407.651215,61.4648988 C408.087362,61.4648988 408.455243,61.7547652 408.747272,62.335252 L411.227621,66.9783922 C411.470347,67.4620055 411.591709,67.8249982 411.591709,68.0666164 C411.591709,68.5019815 411.29968,68.9132224 410.715623,69.2999623 C408.720724,70.6060575 406.460344,71.54916 403.926898,72.1292699 C401.397245,72.7097566 398.503503,73 395.241882,73 Z M400.86249,50.3647857 C400.86249,48.5268289 400.327736,47.1001131 399.254435,46.0842612 C398.184926,45.0687864 396.580664,44.5610489 394.437854,44.5610489 C392.298837,44.5610489 390.668026,45.0929105 389.549214,46.1570106 C388.430401,47.1724855 387.869099,48.5750772 387.869099,50.3647857 L400.86249,50.3647857 Z" id="形状" fill="#FFFFFF" fill-rule="nonzero"></path>
            <path d="M438.782322,73 C434.674319,73 430.787341,72.5848442 427.121387,71.754913 C423.455433,70.8758938 420.49447,69.6555411 418.24612,68.0930939 C417.415373,67.5557887 417,66.9945102 417,66.4084973 C417,66.0176953 417.144809,65.60292 417.438238,65.1634103 L421.031787,59.4505464 C421.424296,58.8649141 421.816805,58.5719077 422.205502,58.5719077 C422.453202,58.5719077 422.868575,58.7427647 423.455433,59.0844786 C425.261734,60.1100011 427.315736,60.9399322 429.613626,61.5746526 C431.911516,62.209373 434.186542,62.5267332 436.434892,62.5267332 C438.732782,62.5267332 440.42095,62.1850192 441.495585,61.5012107 C442.61976,60.8177828 443.183753,59.719199 443.183753,58.2054594 C443.183753,56.7408079 442.574031,55.5935165 441.350776,54.7632049 C440.177061,53.9332737 437.951575,52.8833975 434.674319,51.6139567 C429.73557,49.7585031 425.875267,47.683485 423.085789,45.3889023 C420.349661,43.0452316 418.981597,39.8712491 418.981597,35.8677161 C418.981597,31.0337953 420.715494,27.3474321 424.187099,24.8084745 C427.658704,22.2694788 432.28116,21 438.050655,21 C442.059578,21 445.481643,21.36622 448.316851,22.0985838 C451.201599,22.7821639 453.648109,23.8563559 455.65257,25.3211216 C456.483316,25.95588 456.898689,26.5417787 456.898689,27.0788937 C456.898689,27.4206457 456.75388,27.8112575 456.460452,28.250691 L452.866902,33.9633647 C452.424854,34.5493014 452.032345,34.8421937 451.693187,34.8421937 C451.445487,34.8421937 451.030114,34.6713747 450.443257,34.3295846 C447.608049,32.4741691 444.235524,31.5464804 440.32187,31.5464804 C438.22214,31.5464804 436.606376,31.8882704 435.482201,32.5718506 C434.358026,33.2553927 433.794033,34.3784064 433.794033,35.9407774 C433.794033,37.0150074 434.087462,37.8940267 434.674319,38.5774546 C435.261177,39.2608825 436.046194,39.8712491 437.021749,40.4085544 C438.050655,40.8967716 439.613068,41.531492 441.716609,42.3127156 L443.111349,42.8252865 C446.727763,44.2412305 449.562971,45.6084669 451.616972,46.9266152 C453.720513,48.196056 455.309601,49.7832375 456.384236,51.6873986 C457.462682,53.5428522 458,55.8865229 458,58.7184109 C458,63.0636579 456.361372,66.5306468 453.084116,69.1182358 C449.856399,71.7062055 445.089135,73 438.782322,73 Z" id="路径" fill="#FFFFFF" fill-rule="nonzero"></path>
            <path d="M472.906263,72 C472.19077,72 471.639243,71.8783893 471.255411,71.6355469 C470.875305,71.3923256 470.588362,70.9062618 470.398309,70.1769768 L461.145335,38.6771662 C461.048445,38.3854522 461,38.1668561 461,38.0209991 C461,37.3405856 461.480722,37 462.434714,37 L471.903827,37 C472.526157,37 472.977068,37.1216107 473.26401,37.364832 C473.550953,37.5591817 473.744733,37.8993884 473.837896,38.3854522 L477.713487,54.9373816 L482.587788,41.5939276 C482.830013,41.0104995 483.068511,40.6218001 483.307009,40.4270715 C483.593952,40.184229 484.070947,40.0626184 484.741723,40.0626184 L489.258277,40.0626184 C489.929053,40.0626184 490.383689,40.184229 490.622187,40.4270715 C490.90913,40.6218001 491.173714,41.0104995 491.412212,41.5939276 L496.215709,54.9373816 L500.162104,38.3854522 C500.303712,37.8993884 500.497492,37.5591817 500.73599,37.364832 C500.974488,37.1216107 501.406765,37 502.025369,37 L511.565286,37 C512.523004,37 513,37.3405856 513,38.0209991 C513,38.1668561 512.951555,38.3854522 512.858392,38.6771662 L503.534614,70.1769768 C503.340834,70.9062618 503.053891,71.3923256 502.673785,71.6355469 C502.338398,71.8783893 501.812957,72 501.093737,72 L494.065501,72 C493.394726,72 492.895371,71.8783893 492.559983,71.6355469 C492.224595,71.3438329 491.937652,70.8577691 491.699154,70.1769768 L486.966461,56.9793798 L482.230042,70.1769768 C482.039989,70.8577691 481.753046,71.3438329 481.369213,71.6355469 C481.033825,71.8783893 480.53447,72 479.863695,72 L472.906263,72 Z" id="路径" fill="#FFFFFF" fill-rule="nonzero"></path>
            <path d="M532,73 C527.459337,73 523.810994,71.54916 521.058735,68.6471032 C518.351657,65.6967981 517,61.5613953 517,56.2412718 C517,52.1786184 517.918675,48.6237024 519.752259,45.5765238 C521.638554,42.5293452 524.270331,40.183651 527.651355,38.5394411 C531.081325,36.846606 535.019578,36 539.462349,36 C543.133283,36 546.371235,36.4112409 549.17244,37.2333459 C552.02259,38.0072026 554.631777,39.144052 557,40.6431402 L557,69.6625781 C557,70.5815565 556.830572,71.1861673 556.491717,71.4764107 C556.152861,71.7666541 555.478916,71.9117758 554.462349,71.9117758 L547.071536,71.9117758 C546.540663,71.9117758 546.130271,71.8390265 545.840361,71.6942817 C545.550452,71.5005348 545.309488,71.2102915 545.11747,70.8235516 L544.17244,68.6471032 C542.771837,70.1465683 541.081325,71.2347925 539.100904,71.9117758 C537.169428,72.6373842 534.801205,73 532,73 Z M537.432982,63.1332328 C539.319277,63.1332328 540.791416,62.6737436 541.853163,61.7547652 C542.918675,60.8361638 543.449548,59.5300686 543.449548,57.8372335 L543.449548,46.5196263 C542.530873,46.0842612 541.371235,45.8667672 539.970633,45.8667672 C537.410392,45.8667672 535.358434,46.7616215 533.810994,48.550953 C532.3125,50.3406616 531.563253,52.8556016 531.563253,56.0961501 C531.563253,60.7875386 533.521084,63.1332328 537.432982,63.1332328 Z" id="形状" fill="#FFFFFF" fill-rule="nonzero"></path>
            <path d="M566.828094,87 C565.405466,87 564.399683,86.7076482 563.810745,86.1221841 C563.271523,85.5367201 563,84.6098621 563,83.3416101 L563,41.414782 C565.210428,39.853798 567.983024,38.5612151 571.317788,37.536653 C574.656375,36.5124711 578.140285,36 581.769518,36 C596.588564,36 604,42.2439359 604,54.7318077 C604,60.3902795 602.428225,64.9025345 599.288499,68.2685725 C596.148773,71.6342303 591.708796,73.3172493 585.964742,73.3172493 C584.347076,73.3172493 582.775301,73.1222214 581.257066,72.7317853 C579.784722,72.3417294 578.557131,71.8049273 577.574293,71.1221394 L577.574293,83.3416101 C577.574293,84.6098621 577.279825,85.5367201 576.690887,86.1221841 C576.101949,86.7076482 575.096166,87 573.673538,87 L566.828094,87 Z M582.802071,63.4392546 C584.913068,63.4392546 586.481019,62.6587626 587.513571,61.0977786 C588.592016,59.4881327 589.131238,57.3416847 589.131238,54.6588148 C589.131238,51.4878047 588.492585,49.2683638 587.219103,48.0001118 C585.991512,46.6831979 584.075553,46.0243608 581.475049,46.0243608 C579.807667,46.0243608 578.48447,46.2440999 577.501632,46.6831979 L577.501632,58.3172046 C577.501632,59.9758927 577.968193,61.2441446 578.901315,62.1219605 C579.834437,63.0001565 581.134689,63.4392546 582.802071,63.4392546 Z" id="形状" fill="#FFFFFF" fill-rule="nonzero"></path>
            <path d="M16.4976843,14.5365239 C15.0875956,6.98062743 20.881466,0 28.5628829,0 C35.3415454,0 40.8366522,5.49879522 40.8366522,12.2819052 L40.8366522,27.4236318 C42.5322762,27.3038969 44.2549579,27.2424877 45.9998121,27.2424877 C47.6762701,27.2424877 49.3324347,27.2991587 50.9634205,27.4097931 L50.9634205,12.2819052 C50.9634205,5.49879522 56.4584145,0 63.2371522,0 C70.9185692,0 76.7123268,6.98062743 75.3023132,14.5365239 L71.9809648,32.3347934 C83.3802025,37.3149982 92,45.9645661 92,56.833592 L92,63.4092342 C92,72.3472339 86.0908708,79.8306652 77.8295896,84.8825453 C69.504046,89.9735349 58.2412248,93 45.9998121,93 C33.7585497,93 22.4957285,89.9735349 14.1702225,84.8825453 C5.90920432,79.8306652 0,72.3472339 0,63.4092342 L0,56.833592 C0,46.0221021 8.53110792,37.4056266 19.834328,32.4156822 L16.4976843,14.5365239 Z M67.7242422,34.6731589 L71.6111744,13.846732 C72.5897659,8.60253894 68.5686719,3.75760007 63.2371522,3.75760007 C58.5324723,3.75760007 54.7184458,7.5740372 54.7184458,12.2819052 L54.7184458,31.5508382 C53.4858114,31.3926708 52.2332594,31.2673327 50.9634205,31.1764786 C49.3354411,31.0599778 47.6792765,31.0000727 45.9998121,31.0000727 C44.2519515,31.0000727 42.528894,31.0649792 40.8366522,31.1910694 C39.5668133,31.2857217 38.3142613,31.4148203 37.0815893,31.5767858 L37.0815893,12.2819052 C37.0815893,7.5740372 33.267638,3.75760007 28.5628829,3.75760007 C23.2315511,3.75760007 19.2102692,8.60250133 20.1889734,13.846732 L24.0885327,34.7422396 C11.897891,39.273476 3.75509675,47.4721579 3.75509675,56.833592 L3.75509675,63.4092342 C3.75509675,77.6766403 22.6687483,89.2424902 45.9998121,89.2424902 C69.3311765,89.2424902 88.2449747,77.6766403 88.2449747,63.4092342 L88.2449747,56.833592 C88.2449747,47.4240233 80.0186431,39.1899925 67.7242422,34.6731589 Z" id="形状" fill="#633001"></path>
            <path d="M89,63.6958797 C89,78.2233387 69.9720032,90 46.4997675,90 C23.027872,90 4,78.2233387 4,63.6958797 L4,57 L89,57 L89,63.6958797 Z" id="路径" fill="#FEDC90" fill-rule="nonzero"></path>
            <path d="M20.5330869,14.1007729 C19.5485112,8.85051095 23.5940352,4 28.9575945,4 C33.6907563,4 37.5277356,7.820864 37.5277356,12.5341464 L37.5277356,31.8512177 C40.4199881,31.4729263 43.4218815,31.2738037 46.4997675,31.2738037 C49.5069539,31.2738037 52.4407944,31.4638153 55.271043,31.8252026 L55.271043,12.5341464 C55.271043,7.820864 59.108098,4 63.8411841,4 C69.2048947,4 73.2502674,8.85051095 72.2657674,14.1007729 L68.3553664,34.9511142 C80.7239991,39.4731426 89,47.7170196 89,57.1370336 C89,71.4208485 69.9720032,83 46.4997675,83 C23.027872,83 4,71.4208485 4,57.1370336 C4,47.7648331 12.1919441,39.5567221 24.4561911,35.020312 L20.5330869,14.1007729 Z" id="路径" fill="#D1884F"></path>
            <path d="M34,54.9998132 C34,58.8660564 31.7614139,62 28.99998,62 C26.2385461,62 24,58.8660564 24,54.9998132 C24,51.1339436 26.2385461,48 28.99998,48 C31.7614139,48 34,51.1339436 34,54.9998132 Z" id="路径" fill="#633001" fill-rule="nonzero"></path>
            <path d="M67,54.9998132 C67,58.8660564 64.7614091,62 62,62 C59.2385909,62 57,58.8660564 57,54.9998132 C57,51.1339436 59.2385909,48 62,48 C64.7614091,48 67,51.1339436 67,54.9998132 Z" id="路径" fill="#633001" fill-rule="nonzero"></path>
        </g>
    </g>
</svg>