<svg width="90" height="100" viewBox="0 0 90 100" fill="none" xmlns="http://www.w3.org/2000/svg">
<path d="M89.9997 29.7501V70.8841C89.9997 74.6236 88.0613 78.096 84.4613 79.9657L51.5077 98.3959C49.5693 99.4643 47.3539 99.9985 45.1385 99.9985L44.9026 48.4149L88.3251 24.4072C89.1559 26.0099 89.9997 27.8804 89.9997 29.7501Z" fill="#821A73"/>
<path d="M44.9161 48.4653L45.1381 81.0358L45.1381 100C42.9227 100 40.7074 99.466 38.7689 98.3975L24.369 90.3844L5.53842 79.9674C2.21537 78.0976 0.276921 74.6253 0 71.1529L0 29.4847C0 27.6149 0.553842 25.7452 1.3846 24.1426L44.9161 48.4653Z" fill="#A84A9A"/>
<path d="M88.3374 24.4086L44.8609 48.4479L1.38428 24.1415C2.21504 22.5388 3.59964 21.2033 5.26117 20.402L39.0455 1.43761C42.3686 -0.432116 46.2455 -0.432117 49.5685 1.17051L84.4605 20.6691C84.4605 20.6691 84.7375 20.6691 84.7375 20.9362C86.399 22.0046 87.5067 23.073 88.3374 24.4086Z" fill="#923684"/>
</svg>
